<svg width="105" height="105" viewBox="0 0 105 105" fill="none" xmlns="http://www.w3.org/2000/svg">
<path d="M70.5 67.8C89.5538 67.8 105 52.6224 105 33.9C105 15.1775 89.5538 0 70.5 0C51.4462 0 36 15.1775 36 33.9C36 52.6224 51.4462 67.8 70.5 67.8Z" fill="#EBB64A"/>
<path d="M70.4994 64.4927C87.6943 64.4927 101.634 50.7959 101.634 33.9001C101.634 17.0042 87.6943 3.30737 70.4994 3.30737C53.3045 3.30737 39.3652 17.0042 39.3652 33.9001C39.3652 50.7959 53.3045 64.4927 70.4994 64.4927Z" fill="white"/>
<path d="M42.7313 32.981H63.7679C65.3573 32.981 66.1987 31.0517 65.0768 29.9493L50.211 15.2501C49.463 14.5151 48.154 14.607 47.4996 15.342C43.8532 19.6599 41.5158 25.0802 40.9549 30.9599C40.8614 32.0623 41.7028 32.981 42.7313 32.981Z" fill="#EEC94D" transform="rotate(0 70.5 33.9)"/>
<path d="M42.7313 32.981H63.7679C65.3573 32.981 66.1987 31.0517 65.0768 29.9493L50.211 15.2501C49.463 14.5151 48.154 14.607 47.4996 15.342C43.8532 19.6599 41.5158 25.0802 40.9549 30.9599C40.8614 32.0623 41.7028 32.981 42.7313 32.981Z" fill="#EEC94D" transform="rotate(45 70.5 33.9)"/>
<path d="M42.7313 32.981H63.7679C65.3573 32.981 66.1987 31.0517 65.0768 29.9493L50.211 15.2501C49.463 14.5151 48.154 14.607 47.4996 15.342C43.8532 19.6599 41.5158 25.0802 40.9549 30.9599C40.8614 32.0623 41.7028 32.981 42.7313 32.981Z" fill="#EEC94D" transform="rotate(90 70.5 33.9)"/>
<path d="M42.7313 32.981H63.7679C65.3573 32.981 66.1987 31.0517 65.0768 29.9493L50.211 15.2501C49.463 14.5151 48.154 14.607 47.4996 15.342C43.8532 19.6599 41.5158 25.0802 40.9549 30.9599C40.8614 32.0623 41.7028 32.981 42.7313 32.981Z" fill="#EEC94D" transform="rotate(135 70.5 33.9)"/>
<path d="M42.7313 32.981H63.7679C65.3573 32.981 66.1987 31.0517 65.0768 29.9493L50.211 15.2501C49.463 14.5151 48.154 14.607 47.4996 15.342C43.8532 19.6599 41.5158 25.0802 40.9549 30.9599C40.8614 32.0623 41.7028 32.981 42.7313 32.981Z" fill="#EEC94D" transform="rotate(180 70.5 33.9)"/>
<path d="M42.7313 32.981H63.7679C65.3573 32.981 66.1987 31.0517 65.0768 29.9493L50.211 15.2501C49.463 14.5151 48.154 14.607 47.4996 15.342C43.8532 19.6599 41.5158 25.0802 40.9549 30.9599C40.8614 32.0623 41.7028 32.981 42.7313 32.981Z" fill="#EEC94D" transform="rotate(225 70.5 33.9)"/>
<path d="M42.7313 32.981H63.7679C65.3573 32.981 66.1987 31.0517 65.0768 29.9493L50.211 15.2501C49.463 14.5151 48.154 14.607 47.4996 15.342C43.8532 19.6599 41.5158 25.0802 40.9549 30.9599C40.8614 32.0623 41.7028 32.981 42.7313 32.981Z" fill="#EEC94D" transform="rotate(270 70.5 33.9)"/>
<path d="M42.7313 32.981H63.7679C65.3573 32.981 66.1987 31.0517 65.0768 29.9493L50.211 15.2501C49.463 14.5151 48.154 14.607 47.4996 15.342C43.8532 19.6599 41.5158 25.0802 40.9549 30.9599C40.8614 32.0623 41.7028 32.981 42.7313 32.981Z" fill="#EEC94D" transform="rotate(315 70.5 33.9)"/>
<path d="M26.5 104.8C41.1356 104.8 53 93.2042 53 78.9C53 64.5958 41.1356 53 26.5 53C11.8645 53 0 64.5958 0 78.9C0 93.2042 11.8645 104.8 26.5 104.8Z" fill="#EBB64A"/>
<path d="M26.5001 102.273C39.7078 102.273 50.4147 91.8087 50.4147 78.9C50.4147 65.9914 39.7078 55.5269 26.5001 55.5269C13.2924 55.5269 2.58545 65.9914 2.58545 78.9C2.58545 91.8087 13.2924 102.273 26.5001 102.273Z" fill="white"/>
<path d="M5.17074 78.1977H21.3293C22.5501 78.1977 23.1965 76.7237 22.3347 75.8815L10.916 64.6511C10.3415 64.0896 9.33605 64.1598 8.83334 64.7213C6.03253 68.0202 4.23714 72.1614 3.80624 76.6536C3.73443 77.4958 4.38076 78.1977 5.17074 78.1977Z" fill="#EEC94D" transform="rotate(0 26.5 78.9)"/>
<path d="M5.17074 78.1977H21.3293C22.5501 78.1977 23.1965 76.7237 22.3347 75.8815L10.916 64.6511C10.3415 64.0896 9.33605 64.1598 8.83334 64.7213C6.03253 68.0202 4.23714 72.1614 3.80624 76.6536C3.73443 77.4958 4.38076 78.1977 5.17074 78.1977Z" fill="#EEC94D" transform="rotate(45 26.5 78.9)"/>
<path d="M5.17074 78.1977H21.3293C22.5501 78.1977 23.1965 76.7237 22.3347 75.8815L10.916 64.6511C10.3415 64.0896 9.33605 64.1598 8.83334 64.7213C6.03253 68.0202 4.23714 72.1614 3.80624 76.6536C3.73443 77.4958 4.38076 78.1977 5.17074 78.1977Z" fill="#EEC94D" transform="rotate(90 26.5 78.9)"/>
<path d="M5.17074 78.1977H21.3293C22.5501 78.1977 23.1965 76.7237 22.3347 75.8815L10.916 64.6511C10.3415 64.0896 9.33605 64.1598 8.83334 64.7213C6.03253 68.0202 4.23714 72.1614 3.80624 76.6536C3.73443 77.4958 4.38076 78.1977 5.17074 78.1977Z" fill="#EEC94D" transform="rotate(135 26.5 78.9)"/>
<path d="M5.17074 78.1977H21.3293C22.5501 78.1977 23.1965 76.7237 22.3347 75.8815L10.916 64.6511C10.3415 64.0896 9.33605 64.1598 8.83334 64.7213C6.03253 68.0202 4.23714 72.1614 3.80624 76.6536C3.73443 77.4958 4.38076 78.1977 5.17074 78.1977Z" fill="#EEC94D" transform="rotate(180 26.5 78.9)"/>
<path d="M5.17074 78.1977H21.3293C22.5501 78.1977 23.1965 76.7237 22.3347 75.8815L10.916 64.6511C10.3415 64.0896 9.33605 64.1598 8.83334 64.7213C6.03253 68.0202 4.23714 72.1614 3.80624 76.6536C3.73443 77.4958 4.38076 78.1977 5.17074 78.1977Z" fill="#EEC94D" transform="rotate(225 26.5 78.9)"/>
<path d="M5.17074 78.1977H21.3293C22.5501 78.1977 23.1965 76.7237 22.3347 75.8815L10.916 64.6511C10.3415 64.0896 9.33605 64.1598 8.83334 64.7213C6.03253 68.0202 4.23714 72.1614 3.80624 76.6536C3.73443 77.4958 4.38076 78.1977 5.17074 78.1977Z" fill="#EEC94D" transform="rotate(270 26.5 78.9)"/>
<path d="M5.17074 78.1977H21.3293C22.5501 78.1977 23.1965 76.7237 22.3347 75.8815L10.916 64.6511C10.3415 64.0896 9.33605 64.1598 8.83334 64.7213C6.03253 68.0202 4.23714 72.1614 3.80624 76.6536C3.73443 77.4958 4.38076 78.1977 5.17074 78.1977Z" fill="#EEC94D" transform="rotate(315 26.5 78.9)"/>
</svg>